<svg width="20" height="23" viewBox="0 0 20 23" fill="none" xmlns="http://www.w3.org/2000/svg">
<path d="M14.5 1H4.86C2.73 1 1 2.74 1 4.86V18.95C1 20.75 2.29 21.51 3.87 20.64L8.75 17.93C9.27 17.64 10.11 17.64 10.62 17.93L15.5 20.64C17.08 21.52 18.37 20.76 18.37 18.95V4.86C18.36 2.74 16.63 1 14.5 1Z" stroke="#6E7F8D" stroke-width="2" stroke-linecap="round" stroke-linejoin="round"/>
<path d="M10.371 5.57767L11.0749 6.99715C11.1709 7.19475 11.4269 7.38428 11.6428 7.42057L12.9187 7.6343C13.7346 7.77141 13.9266 8.36824 13.3387 8.957L12.3468 9.95709C12.1788 10.1265 12.0868 10.4531 12.1388 10.687L12.4228 11.925C12.6467 12.9049 12.1308 13.284 11.2709 12.7718L10.075 12.0581C9.85904 11.929 9.50308 11.929 9.28311 12.0581L8.08724 12.7718C7.23133 13.284 6.71139 12.9009 6.93537 11.925L7.21933 10.687C7.27133 10.4531 7.17934 10.1265 7.01136 9.95709L6.01947 8.957C5.43553 8.36824 5.62351 7.77141 6.43942 7.6343L7.71528 7.42057C7.92726 7.38428 8.18323 7.19475 8.27922 6.99715L8.98314 5.57767C9.3671 4.80744 9.99103 4.80744 10.371 5.57767Z" fill="#FFD23F"/>
</svg>
