<svg width="25" height="24" viewBox="0 0 25 24" fill="none" xmlns="http://www.w3.org/2000/svg">
<path d="M3.30209 7.44L12.5 12.55L21.6354 7.46997" stroke="#EFF2F9" stroke-width="1.5" stroke-linecap="round" stroke-linejoin="round"/>
<path d="M12.5 21.61V12.54" stroke="#EFF2F9" stroke-width="1.5" stroke-linecap="round" stroke-linejoin="round"/>
<path d="M22.5104 9.17V14.83C22.5104 14.88 22.5104 14.92 22.5 14.97C21.7708 14.36 20.8333 14 19.7917 14C18.8125 14 17.9062 14.33 17.1875 14.88C16.2292 15.61 15.625 16.74 15.625 18C15.625 18.75 15.8437 19.46 16.2291 20.06C16.3229 20.22 16.4375 20.37 16.5625 20.51L14.6563 21.52C13.4688 22.16 11.5312 22.16 10.3437 21.52L4.78124 18.56C3.52082 17.89 2.48959 16.21 2.48959 14.83V9.17C2.48959 7.79 3.52082 6.11002 4.78124 5.44002L10.3437 2.48C11.5312 1.84 13.4688 1.84 14.6563 2.48L20.2188 5.44002C21.4792 6.11002 22.5104 7.79 22.5104 9.17Z" stroke="#EFF2F9" stroke-width="1.5" stroke-linecap="round" stroke-linejoin="round"/>
<path d="M23.9583 18C23.9583 19.2 23.4063 20.27 22.5417 21C21.8021 21.62 20.8437 22 19.7917 22C17.4896 22 15.625 20.21 15.625 18C15.625 16.74 16.2292 15.61 17.1875 14.88C17.9062 14.33 18.8125 14 19.7917 14C22.0937 14 23.9583 15.79 23.9583 18Z" stroke="#EFF2F9" stroke-width="1.5" stroke-miterlimit="10" stroke-linecap="round" stroke-linejoin="round"/>
<path d="M20.0521 16.75V18.25L18.75 19" stroke="#EFF2F9" stroke-width="1.5" stroke-miterlimit="10" stroke-linecap="round" stroke-linejoin="round"/>
</svg>
