<svg width="14" height="14" viewBox="0 0 14 14" fill="none" xmlns="http://www.w3.org/2000/svg">
<path d="M11.9758 9.92847L11.76 9.92263C11.3283 9.9168 10.9842 9.5668 10.9842 9.13513L10.9842 8.94263C10.9842 8.51097 10.6342 8.15513 10.1967 8.15513C9.765 8.15513 9.40916 8.50513 9.40916 8.94263L9.40916 9.12347C9.40916 9.55513 9.05916 9.91097 8.62166 9.91097C8.19 9.91097 7.83416 9.56097 7.83416 9.12347L7.83416 8.94263C7.83416 8.51097 7.48416 8.15513 7.04666 8.15513C6.615 8.15513 6.25916 8.50513 6.25916 8.94263L6.25916 9.12347C6.25916 9.55513 5.90916 9.91097 5.47166 9.91097C5.04 9.91097 4.68416 9.56097 4.68416 9.12347L4.68416 8.94263C4.68416 8.51097 4.33416 8.15513 3.89666 8.15513C3.465 8.15513 3.10916 8.50513 3.10916 8.94263L3.10916 9.12347C3.10916 9.55513 2.75916 9.91097 2.32166 9.91097L2.05916 9.91097" stroke="#3BCEAC" stroke-linecap="round" stroke-linejoin="round"/>
<path d="M1.81416 12.8333V7.58325C1.81416 6.61492 2.68333 5.83325 3.75666 5.83325H10.2375C11.3108 5.83325 12.18 6.61492 12.18 7.58325V12.8333" stroke="#6E7F8D" stroke-linecap="round" stroke-linejoin="round"/>
<path d="M1.16666 12.8333H12.8333" stroke="#6E7F8D" stroke-linecap="round" stroke-linejoin="round"/>
<path d="M3.24333 5.83341V4.18258C3.24333 3.48258 3.87333 2.91675 4.655 2.91675H9.35083C10.1267 2.91675 10.7567 3.48258 10.7567 4.18258V5.83341" stroke="#6E7F8D" stroke-linecap="round" stroke-linejoin="round"/>
<path d="M4.66666 2.91667V1.75" stroke="#6E7F8D" stroke-linecap="round" stroke-linejoin="round"/>
<path d="M9.33334 2.91667V1.75" stroke="#6E7F8D" stroke-linecap="round" stroke-linejoin="round"/>
<path d="M7 2.91675V1.16675" stroke="#6E7F8D" stroke-linecap="round" stroke-linejoin="round"/>
</svg>
