<svg width="14" height="14" viewBox="0 0 14 14" fill="none" xmlns="http://www.w3.org/2000/svg">
<path d="M12.8158 10.6923C12.8158 10.9023 12.7692 11.1182 12.67 11.3282C12.5708 11.5382 12.4425 11.7365 12.2733 11.9232C11.9875 12.2382 11.6725 12.4657 11.3167 12.6115C10.9667 12.7573 10.5875 12.8332 10.1792 12.8332C9.58416 12.8332 8.94833 12.6932 8.2775 12.4073C7.60666 12.1215 6.93583 11.7365 6.27083 11.2523C5.6 10.7623 4.96416 10.2198 4.3575 9.619C3.75666 9.01234 3.21416 8.3765 2.73 7.7115C2.25166 7.0465 1.86666 6.3815 1.58666 5.72234C1.30666 5.05734 1.16666 4.4215 1.16666 3.81484C1.16666 3.41817 1.23666 3.039 1.37666 2.689C1.51666 2.33317 1.73833 2.0065 2.0475 1.71484C2.42083 1.34734 2.82916 1.1665 3.26083 1.1665C3.42416 1.1665 3.5875 1.2015 3.73333 1.2715C3.885 1.3415 4.01916 1.4465 4.12416 1.59817L5.4775 3.50567C5.5825 3.6515 5.65833 3.78567 5.71083 3.914C5.76333 4.0365 5.7925 4.159 5.7925 4.26984C5.7925 4.40984 5.75166 4.54984 5.67 4.684C5.59416 4.81817 5.48333 4.95817 5.34333 5.09817L4.9 5.559C4.83583 5.62317 4.80666 5.699 4.80666 5.79234C4.80666 5.839 4.8125 5.87984 4.82416 5.9265C4.84166 5.97317 4.85916 6.00817 4.87083 6.04317C4.97583 6.23567 5.15666 6.4865 5.41333 6.78984C5.67583 7.09317 5.95583 7.40234 6.25916 7.7115C6.57416 8.02067 6.8775 8.3065 7.18666 8.569C7.49 8.82567 7.74083 9.00067 7.93916 9.10567C7.96833 9.11734 8.00333 9.13484 8.04416 9.15234C8.09083 9.16984 8.1375 9.17567 8.19 9.17567C8.28916 9.17567 8.365 9.14067 8.42916 9.0765L8.8725 8.639C9.01833 8.49317 9.15833 8.38234 9.2925 8.31234C9.42666 8.23067 9.56083 8.18984 9.70666 8.18984C9.8175 8.18984 9.93416 8.21317 10.0625 8.26567C10.1908 8.31817 10.325 8.394 10.4708 8.49317L12.4017 9.864C12.5533 9.969 12.6583 10.0915 12.7225 10.2373C12.7808 10.3832 12.8158 10.529 12.8158 10.6923Z" fill="#3BCEAC" stroke="#6E7F8D" stroke-miterlimit="10"/>
</svg>
