<svg width="14" height="14" viewBox="0 0 14 14" fill="none" xmlns="http://www.w3.org/2000/svg">
<path d="M4.08333 7C1.75 7 1.75 8.04417 1.75 9.33333V9.91667C1.75 11.5267 1.75 12.8333 4.66667 12.8333H9.33333C11.6667 12.8333 12.25 11.5267 12.25 9.91667V9.33333C12.25 8.04417 12.25 7 9.91667 7C9.33333 7 9.17 7.1225 8.86667 7.35L8.27167 7.98C7.58333 8.715 6.41667 8.715 5.7225 7.98L5.13333 7.35C4.83 7.1225 4.66667 7 4.08333 7Z" stroke="#6E7F8D" stroke-miterlimit="10" stroke-linecap="round" stroke-linejoin="round"/>
<path d="M11.0833 6.99984V3.49984C11.0833 2.21067 11.0833 1.1665 8.75 1.1665H5.25C2.91666 1.1665 2.91666 2.21067 2.91666 3.49984V6.99984" stroke="#6E7F8D" stroke-miterlimit="10" stroke-linecap="round" stroke-linejoin="round"/>
<path d="M6.15417 5.38428H8.09667" stroke="#3BCEAC" stroke-linecap="round" stroke-linejoin="round"/>
<path d="M5.67 3.63428H8.58667" stroke="#3BCEAC" stroke-linecap="round" stroke-linejoin="round"/>
</svg>
