<svg width="28" height="28" viewBox="0 0 28 28" fill="none" xmlns="http://www.w3.org/2000/svg">
<path d="M14.1499 14.9751C14.0624 14.9626 13.9499 14.9626 13.8499 14.9751C11.6499 14.9001 9.8999 13.1001 9.8999 10.8876C9.8999 8.6251 11.7249 6.7876 13.9999 6.7876C16.2624 6.7876 18.0999 8.6251 18.0999 10.8876C18.0874 13.1001 16.3499 14.9001 14.1499 14.9751Z" fill="#3BCEAC" stroke="#404040" stroke-width="1.5" stroke-linecap="round" stroke-linejoin="round"/>
<path d="M22.4249 23.225C20.1999 25.2625 17.2499 26.5 14 26.5C10.75 26.5 7.79995 25.2625 5.57495 23.225C5.69995 22.05 6.44995 20.9 7.78745 20C11.2125 17.725 16.8124 17.725 20.2124 20C21.5499 20.9 22.2999 22.05 22.4249 23.225Z" stroke="#404040" stroke-width="1.5" stroke-linecap="round" stroke-linejoin="round"/>
<path d="M14 26.5C20.9036 26.5 26.5 20.9036 26.5 14C26.5 7.09644 20.9036 1.5 14 1.5C7.09644 1.5 1.5 7.09644 1.5 14C1.5 20.9036 7.09644 26.5 14 26.5Z" stroke="#404040" stroke-width="1.5" stroke-linecap="round" stroke-linejoin="round"/>
</svg>
