<svg width="25" height="28" viewBox="0 0 25 28" fill="none" xmlns="http://www.w3.org/2000/svg">
<path d="M16.1069 26.4419H20.5534C22.7878 26.4419 23.188 25.5514 23.3047 24.4674L23.7216 20.0427C23.8716 18.6932 23.4826 17.5925 21.1093 17.5925H15.5511C13.1778 17.5925 12.7888 18.6932 12.9388 20.0427L13.3557 24.4674C13.4724 25.5514 13.8726 26.4419 16.1069 26.4419Z" stroke="#464646" stroke-miterlimit="10" stroke-linecap="round" stroke-linejoin="round"/>
<path d="M16.107 17.5927V17.1502C16.107 16.1713 16.107 15.3804 17.8856 15.3804H18.7749C20.5535 15.3804 20.5535 16.1713 20.5535 17.1502V17.5927" stroke="#464646" stroke-miterlimit="10" stroke-linecap="round" stroke-linejoin="round"/>
<path d="M19.4418 21.4642V22.0173C19.4418 22.0228 19.4418 22.0228 19.4418 22.0284C19.4418 22.6312 19.4363 23.1235 18.3302 23.1235C17.2297 23.1235 17.2186 22.6368 17.2186 22.0339V21.4642C17.2186 20.9111 17.2186 20.9111 17.7744 20.9111H18.886C19.4418 20.9111 19.4418 20.9111 19.4418 21.4642Z" stroke="#464646" stroke-miterlimit="10" stroke-linecap="round" stroke-linejoin="round"/>
<path d="M23.6939 20.3582C22.4099 21.2874 20.9426 21.8405 19.4419 22.0285" stroke="#464646" stroke-miterlimit="10" stroke-linecap="round" stroke-linejoin="round"/>
<path d="M13.1168 20.5076C14.3673 21.3593 15.7791 21.8737 17.2187 22.0341" stroke="#464646" stroke-miterlimit="10" stroke-linecap="round" stroke-linejoin="round"/>
<path d="M9.99079 11C12.7522 11 14.9908 8.76142 14.9908 6C14.9908 3.23858 12.7522 1 9.99079 1C7.22936 1 4.99078 3.23858 4.99078 6C4.99078 8.76142 7.22936 11 9.99079 11Z" stroke="#464646" stroke-width="1.5" stroke-linecap="round" stroke-linejoin="round"/>
<path d="M1 23.1236C1 18.8427 5.27978 15.3804 10.5489 15.3804" stroke="#464646" stroke-width="1.5" stroke-linecap="round" stroke-linejoin="round"/>
</svg>
