<svg width="14" height="14" viewBox="0 0 14 14" fill="none" xmlns="http://www.w3.org/2000/svg">
<path d="M12.8333 12.8333H1.16664V11.0833C1.16664 10.7625 1.42914 10.5 1.74997 10.5H12.25C12.5708 10.5 12.8333 10.7625 12.8333 11.0833V12.8333Z" stroke="#6E7F8D" stroke-miterlimit="10" stroke-linecap="round" stroke-linejoin="round"/>
<rect x="2" y="6" width="3" height="4" fill="#3BCEAC"/>
<rect x="9" y="6" width="3" height="4" fill="#3BCEAC"/>
<path d="M7.21581 1.25424L12.4658 3.35422C12.67 3.43589 12.8333 3.68089 12.8333 3.89672V5.83339C12.8333 6.15422 12.5708 6.41672 12.25 6.41672H1.74997C1.42914 6.41672 1.16664 6.15422 1.16664 5.83339V3.89672C1.16664 3.68089 1.32998 3.43589 1.53414 3.35422L6.78414 1.25424C6.90081 1.20757 7.09914 1.20757 7.21581 1.25424Z" stroke="#6E7F8D" stroke-miterlimit="10" stroke-linecap="round" stroke-linejoin="round"/>
<path d="M2.33331 10.4998V6.4165" stroke="#6E7F8D" stroke-miterlimit="10" stroke-linecap="round" stroke-linejoin="round"/>
<path d="M4.66664 10.4998V6.4165" stroke="#6E7F8D" stroke-miterlimit="10" stroke-linecap="round" stroke-linejoin="round"/>
<path d="M9.33331 10.4998V6.4165" stroke="#6E7F8D" stroke-miterlimit="10" stroke-linecap="round" stroke-linejoin="round"/>
<path d="M11.6666 10.4998V6.4165" stroke="#6E7F8D" stroke-miterlimit="10" stroke-linecap="round" stroke-linejoin="round"/>
<path d="M0.583313 12.8335H13.4166" stroke="#6E7F8D" stroke-miterlimit="10" stroke-linecap="round" stroke-linejoin="round"/>
<path d="M6.99998 4.9585C7.48323 4.9585 7.87498 4.56674 7.87498 4.0835C7.87498 3.60025 7.48323 3.2085 6.99998 3.2085C6.51673 3.2085 6.12498 3.60025 6.12498 4.0835C6.12498 4.56674 6.51673 4.9585 6.99998 4.9585Z" stroke="#3BCEAC" stroke-miterlimit="10" stroke-linecap="round" stroke-linejoin="round"/>
</svg>
