<svg width="28" height="26" viewBox="0 0 28 26" fill="none" xmlns="http://www.w3.org/2000/svg">
<path d="M20.5 24.4H7.5C2.3 24.4 1 23.1 1 17.9V7.5C1 2.3 2.3 1 7.5 1H20.5C25.7 1 27 2.3 27 7.5V17.9C27 23.1 25.7 24.4 20.5 24.4Z" stroke="#6E7F8D" stroke-width="2" stroke-linecap="round" stroke-linejoin="round"/>
<path d="M16.6001 7.5H23.1001" stroke="#6E7F8D" stroke-width="2" stroke-linecap="round" stroke-linejoin="round"/>
<path d="M17.8999 12.7H23.0999" stroke="#6E7F8D" stroke-width="2" stroke-linecap="round" stroke-linejoin="round"/>
<path d="M20.5 17.9H23.1" stroke="#6E7F8D" stroke-width="2" stroke-linecap="round" stroke-linejoin="round"/>
<path d="M13.9999 13.35C13.9999 15.8616 11.9615 17.9 9.4499 17.9C6.9383 17.9 5.40495 15.3702 5.40495 15.3702M5.40495 15.3702H7.46155M5.40495 15.3702V17.6452M4.8999 13.35C4.8999 10.8384 6.9201 8.79999 9.4499 8.79999C12.4848 8.79999 13.9999 11.3298 13.9999 11.3298M13.9999 11.3298V9.05479M13.9999 11.3298H11.9797" stroke="#EF476F" stroke-width="1.5" stroke-linecap="round" stroke-linejoin="round"/>
</svg>
