<svg width="28" height="28" viewBox="0 0 28 28" fill="none" xmlns="http://www.w3.org/2000/svg">
<path d="M16.9583 20.0833H10.7083C8.20825 20.0833 7.58325 19.4583 7.58325 16.9583V15.7083C7.58325 13.2083 8.20825 12.5833 10.7083 12.5833H16.9583C19.4583 12.5833 20.0833 13.2083 20.0833 15.7083V16.9583C20.0833 19.4583 19.4583 20.0833 16.9583 20.0833Z" fill="#3BCEAC" stroke="#404040" stroke-width="1.5" stroke-linecap="round" stroke-linejoin="round"/>
<path d="M10.0833 12.5831V11.3331C10.0833 9.25813 10.7083 7.58313 13.8333 7.58313C16.9583 7.58313 17.5833 9.25813 17.5833 11.3331V12.5831" stroke="#404040" stroke-width="1.5" stroke-linecap="round" stroke-linejoin="round"/>
<path d="M13.833 17.0833C14.2472 17.0833 14.5829 16.7475 14.5829 16.3333C14.5829 15.919 14.2472 15.5833 13.833 15.5833C13.4188 15.5833 13.083 15.919 13.083 16.3333C13.083 16.7475 13.4188 17.0833 13.833 17.0833Z" stroke="#404040" stroke-width="1.5" stroke-linecap="round" stroke-linejoin="round"/>
<path d="M13.8333 26.3333C20.7368 26.3333 26.3333 20.7368 26.3333 13.8333C26.3333 6.92969 20.7368 1.33325 13.8333 1.33325C6.92969 1.33325 1.33325 6.92969 1.33325 13.8333C1.33325 20.7368 6.92969 26.3333 13.8333 26.3333Z" stroke="#404040" stroke-width="1.5" stroke-linecap="round" stroke-linejoin="round"/>
</svg>
