<svg width="26" height="26" viewBox="0 0 26 26" fill="none" xmlns="http://www.w3.org/2000/svg">
<path d="M13 16.25C14.7949 16.25 16.25 14.7949 16.25 13C16.25 11.2051 14.7949 9.75 13 9.75C11.2051 9.75 9.75 11.2051 9.75 13C9.75 14.7949 11.2051 16.25 13 16.25Z" stroke="#B83EE4" stroke-width="2" stroke-miterlimit="10" stroke-linecap="round" stroke-linejoin="round"/>
<path d="M2.16675 13.9533V12.0467C2.16675 10.92 3.08758 9.98835 4.22508 9.98835C6.18591 9.98835 6.98758 8.60168 6.00175 6.90085C5.43841 5.92585 5.77425 4.65835 6.76008 4.09501L8.63425 3.02251C9.49008 2.51335 10.5951 2.81668 11.1042 3.67251L11.2234 3.87835C12.1984 5.57918 13.8017 5.57918 14.7876 3.87835L14.9067 3.67251C15.4159 2.81668 16.5209 2.51335 17.3767 3.02251L19.2509 4.09501C20.2367 4.65835 20.5726 5.92585 20.0092 6.90085C19.0234 8.60168 19.8251 9.98835 21.7859 9.98835C22.9126 9.98835 23.8442 10.9092 23.8442 12.0467V13.9533C23.8442 15.08 22.9234 16.0117 21.7859 16.0117C19.8251 16.0117 19.0234 17.3983 20.0092 19.0992C20.5726 20.085 20.2367 21.3417 19.2509 21.905L17.3767 22.9775C16.5209 23.4867 15.4159 23.1833 14.9067 22.3275L14.7876 22.1217C13.8126 20.4208 12.2092 20.4208 11.2234 22.1217L11.1042 22.3275C10.5951 23.1833 9.49008 23.4867 8.63425 22.9775L6.76008 21.905C5.77425 21.3417 5.43841 20.0742 6.00175 19.0992C6.98758 17.3983 6.18591 16.0117 4.22508 16.0117C3.08758 16.0117 2.16675 15.08 2.16675 13.9533Z" stroke="#6E7F8D" stroke-width="2" stroke-miterlimit="10" stroke-linecap="round" stroke-linejoin="round"/>
</svg>
