<svg width="25" height="24" viewBox="0 0 25 24" fill="none" xmlns="http://www.w3.org/2000/svg">
<path d="M15.625 2V12C15.625 13.1 14.6875 14 13.5417 14H2.08334V7.62C2.84376 8.49 4.01045 9.03 5.30212 9C6.3542 8.98 7.3021 8.59 8.01043 7.94C8.33335 7.68 8.6042 7.34999 8.81253 6.98999C9.18753 6.37999 9.39584 5.65997 9.37501 4.90997C9.34376 3.73997 8.80211 2.71 7.95836 2H15.625Z" stroke="white" stroke-width="1.5" stroke-linecap="round" stroke-linejoin="round"/>
<path d="M22.9167 14V17C22.9167 18.66 21.5208 20 19.7917 20H18.75C18.75 18.9 17.8125 18 16.6667 18C15.5208 18 14.5833 18.9 14.5833 20H10.4167C10.4167 18.9 9.47918 18 8.33334 18C7.18751 18 6.25001 18.9 6.25001 20H5.20834C3.47918 20 2.08334 18.66 2.08334 17V14H13.5417C14.6875 14 15.625 13.1 15.625 12V5H17.5417C18.2917 5 18.9792 5.39001 19.3542 6.01001L21.1354 9H19.7917C19.2188 9 18.75 9.45 18.75 10V13C18.75 13.55 19.2188 14 19.7917 14H22.9167Z" stroke="white" stroke-width="1.5" stroke-linecap="round" stroke-linejoin="round"/>
<path d="M8.33333 22C9.48393 22 10.4167 21.1046 10.4167 20C10.4167 18.8954 9.48393 18 8.33333 18C7.18274 18 6.25 18.8954 6.25 20C6.25 21.1046 7.18274 22 8.33333 22Z" stroke="white" stroke-width="1.5" stroke-linecap="round" stroke-linejoin="round"/>
<path d="M16.6667 22C17.8173 22 18.75 21.1046 18.75 20C18.75 18.8954 17.8173 18 16.6667 18C15.5161 18 14.5833 18.8954 14.5833 20C14.5833 21.1046 15.5161 22 16.6667 22Z" stroke="white" stroke-width="1.5" stroke-linecap="round" stroke-linejoin="round"/>
<path d="M22.9167 12V14H19.7917C19.2188 14 18.75 13.55 18.75 13V10C18.75 9.45 19.2188 9 19.7917 9H21.1354L22.9167 12Z" stroke="white" stroke-width="1.5" stroke-linecap="round" stroke-linejoin="round"/>
<path d="M9.37499 5C9.37499 6.2 8.82292 7.27 7.95834 8C7.21875 8.62 6.26041 9 5.20832 9C2.90624 9 1.04166 7.21 1.04166 5C1.04166 3.74 1.64582 2.61 2.60416 1.88C3.32291 1.33 4.22916 1 5.20832 1C7.51041 1 9.37499 2.79 9.37499 5Z" stroke="white" stroke-width="1.5" stroke-miterlimit="10" stroke-linecap="round" stroke-linejoin="round"/>
<path d="M5.46874 3.75V5.25L4.16666 6" stroke="white" stroke-width="1.5" stroke-miterlimit="10" stroke-linecap="round" stroke-linejoin="round"/>
</svg>
