<svg width="26" height="25" viewBox="0 0 26 25" fill="none" xmlns="http://www.w3.org/2000/svg">
<path d="M18.0012 2.00073V12.0007C18.0012 13.1007 17.1012 14.0007 16.0012 14.0007H5.00116V7.62073C5.73116 8.49073 6.85119 9.03073 8.09119 9.00073C9.10119 8.98073 10.0112 8.59073 10.6912 7.94073C11.0012 7.68073 11.2612 7.35072 11.4612 6.99072C11.8212 6.38072 12.0212 5.66071 12.0012 4.91071C11.9712 3.74071 11.4512 2.71073 10.6412 2.00073H18.0012Z" stroke="white" stroke-width="1.5" stroke-linecap="round" stroke-linejoin="round"/>
<path d="M25.0012 14.0007V17.0007C25.0012 18.6607 23.6612 20.0007 22.0012 20.0007H21.0012C21.0012 18.9007 20.1012 18.0007 19.0012 18.0007C17.9012 18.0007 17.0012 18.9007 17.0012 20.0007H13.0012C13.0012 18.9007 12.1012 18.0007 11.0012 18.0007C9.90116 18.0007 9.00116 18.9007 9.00116 20.0007H8.00116C6.34116 20.0007 5.00116 18.6607 5.00116 17.0007V14.0007H16.0012C17.1012 14.0007 18.0012 13.1007 18.0012 12.0007V5.00073H19.8412C20.5612 5.00073 21.2212 5.39074 21.5812 6.01074L23.2911 9.00073H22.0012C21.4512 9.00073 21.0012 9.45073 21.0012 10.0007V13.0007C21.0012 13.5507 21.4512 14.0007 22.0012 14.0007H25.0012Z" stroke="white" stroke-width="1.5" stroke-linecap="round" stroke-linejoin="round"/>
<path d="M11.0012 22.0007C12.1057 22.0007 13.0012 21.1053 13.0012 20.0007C13.0012 18.8962 12.1057 18.0007 11.0012 18.0007C9.89659 18.0007 9.00116 18.8962 9.00116 20.0007C9.00116 21.1053 9.89659 22.0007 11.0012 22.0007Z" stroke="white" stroke-width="1.5" stroke-linecap="round" stroke-linejoin="round"/>
<path d="M19.0012 22.0007C20.1057 22.0007 21.0012 21.1053 21.0012 20.0007C21.0012 18.8962 20.1057 18.0007 19.0012 18.0007C17.8966 18.0007 17.0012 18.8962 17.0012 20.0007C17.0012 21.1053 17.8966 22.0007 19.0012 22.0007Z" stroke="white" stroke-width="1.5" stroke-linecap="round" stroke-linejoin="round"/>
<path d="M25.0012 12.0007V14.0007H22.0012C21.4512 14.0007 21.0012 13.5507 21.0012 13.0007V10.0007C21.0012 9.45073 21.4512 9.00073 22.0012 9.00073H23.2911L25.0012 12.0007Z" stroke="white" stroke-width="1.5" stroke-linecap="round" stroke-linejoin="round"/>
<path d="M12.0011 4.91073C12.0211 5.66073 11.8212 6.38074 11.4612 6.99074C11.2612 7.35074 11.0012 7.68075 10.6912 7.94075C10.0112 8.59075 9.10118 8.98075 8.09118 9.00075C6.85118 9.03075 5.73115 8.49075 5.00115 7.62075C4.86115 7.47075 4.74115 7.30076 4.63115 7.13076C4.24115 6.54076 4.02115 5.84078 4.00115 5.09078C3.97115 3.83078 4.53114 2.68074 5.43114 1.93074C6.11114 1.37074 6.97112 1.02075 7.91112 1.00075C8.96112 0.980752 9.92116 1.36075 10.6412 2.00075C11.4512 2.71075 11.9711 3.74073 12.0011 4.91073Z" stroke="white" stroke-width="1.5" stroke-miterlimit="10" stroke-linecap="round" stroke-linejoin="round"/>
<path d="M6.44116 5.03076L7.45117 5.99072L9.54114 3.9707" stroke="white" stroke-width="1.5" stroke-linecap="round" stroke-linejoin="round"/>
</svg>
