<svg width="14" height="14" viewBox="0 0 14 14" fill="none" xmlns="http://www.w3.org/2000/svg">
<path d="M12.2967 5.0051V8.99508C12.2967 9.64842 11.9467 10.2551 11.3808 10.5876L7.91584 12.5884C7.35 12.9151 6.65 12.9151 6.07834 12.5884L2.61334 10.5876C2.0475 10.2609 1.6975 9.65425 1.6975 8.99508V5.0051C1.6975 4.35177 2.0475 3.74508 2.61334 3.41258L6.07834 1.41175C6.64417 1.08508 7.34417 1.08508 7.91584 1.41175L11.3808 3.41258C11.9467 3.74508 12.2967 4.34593 12.2967 5.0051Z" stroke="#6E7F8D" stroke-linecap="round" stroke-linejoin="round"/>
<path d="M7 6.41656C7.75065 6.41656 8.35917 5.80803 8.35917 5.05738C8.35917 4.30674 7.75065 3.69824 7 3.69824C6.24935 3.69824 5.64083 4.30674 5.64083 5.05738C5.64083 5.80803 6.24935 6.41656 7 6.41656Z" stroke="#3BCEAC" stroke-linecap="round" stroke-linejoin="round"/>
<path d="M9.33333 9.71829C9.33333 8.66829 8.28916 7.81665 7 7.81665C5.71083 7.81665 4.66666 8.66829 4.66666 9.71829" stroke="#6E7F8D" stroke-linecap="round" stroke-linejoin="round"/>
</svg>
